<?xml version="1.0" encoding="UTF-8"?>
<svg width="700pt" height="700pt" version="1.1" viewBox="0 0 700 700" xmlns="http://www.w3.org/2000/svg">
 <path d="m693.39 412.46-2.6992 8.418c-14.145 23.105-29.273 51.113-76.09 55.102v29.391c0 47.824-48.672 107.24-74.684 142.09-13.09 17.547-44.664 30.918-69.363 30.918h-461.99c-4.8086 0-6.5469-4.0586-8.3047-8.5391-1.7578-4.4805 1.9688-10.695 5.4883-13.98 0.86719-0.84375 93.66-83.434 93.66-142.07v-228.32c0-149.2 101.85-263.86 245.07-263.86h22.68c128.52 0 247.44 101.85 247.44 225.02v102.29c0 1.8281 15.574 5.793 55.145 9.2422 12.266 1.0547 21.578 8.3477 26.996 19.445 5.5117 11.281 3.4492 24.301-3.3516 34.855zm-102.22-165.84c0-108.55-110.17-201.56-224.01-201.56h-22.68c-130.09 0-221.66 104.36-221.66 240.4v228.32c0 49.609-58.125 117.68-86.297 141.14h434.03c17.523 0 41.801-9.6875 50.621-21.512 22.656-30.375 69.992-88.004 69.992-128.04zm76.535 134.89c-29.414-2.5547-53.102-5.5117-53.102-8.2305v79.328c23.406-3.3789 42.828-22.262 56.152-44.004l0.375-8.8672c2.3242-3.5898 5.1602-8.0234 3.2852-11.82-0.84375-1.7617-0.89062-5.9141-6.7109-6.4062zm-167.36-80.664c-19.395 0-35.137-26.246-35.137-58.641 0-32.367 15.742-58.641 35.137-58.641 19.398 0 35.117 26.273 35.117 58.641 0 32.395-15.719 58.641-35.117 58.641zm-208.8 222.83c-6.4727 0-11.703-5.2305-11.703-11.727 0-6.4727 5.2305-11.73 11.703-11.73 53.199 0 83.129-29.387 98.891-54.039 2.3477-3.6836 2.6523-8.2344 0.82031-12.152-0.96094-2.0625-3.375-5.6289-8.4883-6.2852-74.051-9.2656-121.76-45.691-123.75-47.242-5.1133-3.9648-6.0547-11.328-2.1133-16.441 3.9648-5.1133 11.305-6.0508 16.418-2.1367 0.44922 0.35156 44.945 34.105 112.33 42.551 11.73 1.4766 21.746 8.7969 26.812 19.586 5.2539 11.258 4.4102 24.254-2.3008 34.762-18.906 29.578-54.84 64.855-118.62 64.855zm68.305-222.83c-19.398 0-35.137-26.246-35.137-58.641 0-32.367 15.738-58.641 35.137-58.641 19.398 0 35.113 26.273 35.113 58.641 0 32.395-15.715 58.641-35.113 58.641z" fill-rule="evenodd"/>
</svg>
