<svg viewBox="0 0 120 100" fill="none" xmlns="http://www.w3.org/2000/svg">
<g clip-path="url(#clip0_0_1)">
<path d="M99 8.09091L98.6591 33.1818H94.7045L94.3636 8.09091H99ZM96.6818 43.2727C95.8409 43.2727 95.1193 42.9716 94.517 42.3693C93.9148 41.767 93.6136 41.0455 93.6136 40.2045C93.6136 39.3636 93.9148 38.642 94.517 38.0398C95.1193 37.4375 95.8409 37.1364 96.6818 37.1364C97.5227 37.1364 98.2443 37.4375 98.8466 38.0398C99.4489 38.642 99.75 39.3636 99.75 40.2045C99.75 40.7614 99.608 41.2727 99.3239 41.7386C99.0511 42.2045 98.6818 42.5795 98.2159 42.8636C97.7614 43.1364 97.25 43.2727 96.6818 43.2727Z" fill="black"/>
<g clip-path="url(#clip1_0_1)">
<path fill-rule="evenodd" clip-rule="evenodd" d="M92.7382 57.1383L92.4434 58.1003C90.8983 60.7409 89.2459 63.9418 84.1322 64.3977V67.7567C84.1322 73.2223 78.8158 80.0127 75.9745 83.9955C74.5447 86.0009 71.0959 87.529 68.3981 87.529H17.9354C17.4102 87.529 17.2203 87.0652 17.0283 86.5531C16.8363 86.0411 17.2434 85.3308 17.6278 84.9554C17.7225 84.859 27.8582 75.4201 27.8582 68.7188V42.6251C27.8582 25.5737 38.9831 12.4697 54.6269 12.4697H57.1042C71.1423 12.4697 84.1318 24.1097 84.1318 38.1863V49.8766C84.1318 50.0855 85.8329 50.5386 90.1552 50.9328C91.495 51.0533 92.5121 51.8868 93.104 53.1551C93.706 54.4443 93.4807 55.9324 92.7379 57.1385L92.7382 57.1383ZM81.5728 38.1851C81.5728 25.7794 69.5391 15.1497 57.1045 15.1497H54.6272C40.4176 15.1497 30.4155 27.0766 30.4155 42.624V68.7177C30.4155 74.3873 24.0666 82.1669 20.9894 84.848H68.398C70.312 84.848 72.9639 83.7409 73.9273 82.3895C76.4019 78.9181 81.5724 72.3319 81.5724 67.7563L81.5728 38.1851ZM89.9327 53.6011C86.7198 53.3092 84.1324 52.9712 84.1324 52.6605V61.7266C86.689 61.3404 88.8104 59.1823 90.2658 56.6975L90.3068 55.6841C90.5606 55.2739 90.8704 54.7672 90.6656 54.3333C90.5735 54.132 90.5683 53.6574 89.9326 53.6012L89.9327 53.6011ZM71.6521 44.3824C69.5336 44.3824 67.8142 41.3829 67.8142 37.6806C67.8142 33.9815 69.5336 30.9787 71.6521 30.9787C73.7709 30.9787 75.4879 33.9814 75.4879 37.6806C75.4879 41.3829 73.7709 44.3824 71.6521 44.3824V44.3824ZM48.8451 69.8487C48.1381 69.8487 47.5668 69.2509 47.5668 68.5085C47.5668 67.7687 48.1382 67.1679 48.8451 67.1679C54.656 67.1679 57.9252 63.8094 59.6469 60.992C59.9033 60.571 59.9366 60.0509 59.7365 59.6032C59.6315 59.3675 59.3678 58.9599 58.8093 58.8849C50.7208 57.826 45.5096 53.6631 45.2923 53.4858C44.7337 53.0327 44.6309 52.1912 45.0614 51.6068C45.4945 51.0225 46.2963 50.9153 46.8547 51.3626C46.9038 51.4028 51.764 55.2604 59.1244 56.2256C60.4057 56.3944 61.4997 57.231 62.0531 58.464C62.6269 59.7506 62.5348 61.2359 61.8017 62.4368C59.7367 65.8172 55.8116 69.8488 48.845 69.8488L48.8451 69.8487ZM56.306 44.3824C54.1872 44.3824 52.468 41.3829 52.468 37.6806C52.468 33.9815 54.1871 30.9787 56.306 30.9787C58.4248 30.9787 60.1414 33.9814 60.1414 37.6806C60.1414 41.3829 58.4248 44.3824 56.306 44.3824Z" fill="black"/>
</g>
</g>
<defs>
<clipPath id="clip0_0_1">
<rect width="120" height="100" fill="white"/>
</clipPath>
<clipPath id="clip1_0_1">
<rect width="76.4602" height="80" fill="white" transform="translate(17 10)"/>
</clipPath>
</defs>
</svg>
