<?xml version="1.0" standalone="no"?>
<!DOCTYPE svg PUBLIC "-//W3C//DTD SVG 20010904//EN"
 "http://www.w3.org/TR/2001/REC-SVG-20010904/DTD/svg10.dtd">
<svg version="1.0" xmlns="http://www.w3.org/2000/svg"
 width="700.000000pt" height="700.000000pt" viewBox="0 0 700.000000 700.000000"
 preserveAspectRatio="xMidYMid meet">
<metadata>
Created by potrace 1.14, written by Peter Selinger 2001-2017
</metadata>
<g transform="translate(0.000000,700.000000) scale(0.100000,-0.100000)"
fill="#000000" stroke="none">
<path d="M3280 6784 c-371 -31 -681 -118 -969 -270 -686 -363 -1162 -1065
-1285 -1899 -33 -221 -36 -347 -36 -1571 0 -815 -4 -1250 -11 -1290 -35 -200
-168 -453 -384 -729 -112 -144 -187 -227 -391 -435 -100 -102 -187 -195 -193
-207 -26 -51 -1 -141 45 -162 18 -8 634 -11 2357 -11 2000 0 2345 2 2422 15
187 30 378 116 496 222 93 83 488 636 607 849 163 293 212 468 212 762 l0 179
59 7 c120 14 269 69 368 137 79 55 171 158 255 284 44 67 85 143 94 172 8 29
19 55 24 58 5 3 18 35 30 71 63 190 -38 392 -224 445 -16 5 -99 16 -185 24
-172 18 -351 47 -393 64 l-28 11 0 560 c0 326 -4 601 -11 658 -52 477 -277
932 -644 1297 -336 335 -766 576 -1231 690 -213 52 -345 66 -654 70 -157 1
-305 1 -330 -1z m684 -260 c492 -68 963 -299 1325 -648 310 -300 500 -634 588
-1030 l27 -121 4 -1390 c2 -995 0 -1412 -8 -1468 -28 -192 -135 -420 -338
-717 -152 -222 -378 -515 -423 -549 -62 -46 -173 -97 -265 -124 l-79 -22
-2209 -3 -2210 -2 132 132 c352 357 596 731 694 1068 l22 75 6 1335 c6 1189 8
1348 24 1450 72 488 217 850 479 1200 80 108 267 299 373 383 335 263 744 417
1189 447 165 12 535 3 669 -16z m2321 -3299 c50 -8 162 -22 250 -31 88 -9 168
-20 177 -25 9 -5 22 -26 27 -46 9 -31 7 -45 -8 -78 -11 -22 -22 -62 -26 -89
-9 -62 -61 -143 -164 -250 -111 -115 -241 -195 -358 -221 l-33 -7 0 387 0 387
23 -6 c12 -3 63 -13 112 -21z"/>
<path d="M3538 5160 c-83 -25 -165 -109 -218 -223 -51 -111 -74 -217 -74 -352
-1 -378 193 -648 420 -585 103 29 207 165 256 335 20 70 23 101 23 250 -1 164
-2 173 -33 266 -77 231 -226 354 -374 309z"/>
<path d="M4937 5156 c-119 -44 -207 -159 -257 -338 -27 -95 -37 -280 -21 -383
76 -468 434 -602 616 -231 60 121 78 210 78 376 0 163 -17 248 -74 368 -37 76
-115 165 -172 194 -51 26 -123 32 -170 14z"/>
<path d="M2603 3391 c-35 -22 -63 -67 -63 -103 0 -75 112 -159 395 -298 265
-130 492 -204 785 -255 167 -29 189 -42 197 -116 4 -38 0 -52 -35 -104 -101
-156 -257 -300 -415 -381 -156 -81 -296 -118 -489 -131 -78 -5 -107 -11 -131
-27 -68 -46 -67 -147 3 -194 33 -23 40 -24 151 -19 268 13 521 98 726 244 151
107 339 317 400 448 25 53 28 72 28 155 0 83 -4 102 -28 151 -32 65 -109 142
-170 169 -23 10 -98 28 -167 40 -372 62 -707 187 -990 371 -108 70 -149 80
-197 50z"/>
</g>
</svg>
