<svg viewBox="0 0 120 100" fill="none" xmlns="http://www.w3.org/2000/svg">
<g clip-path="url(#clip0_0_1)">
<path fill-rule="evenodd" clip-rule="evenodd" d="M73.4712 55.3537L73.2553 56.0752C72.1237 58.0557 70.9135 60.4563 67.1681 60.7983V63.3175C67.1681 67.4167 63.2743 72.5095 61.1934 75.4966C60.1462 77.0007 57.6203 78.1467 55.6443 78.1467H18.6851C18.3004 78.1467 18.1614 77.7989 18.0207 77.4148C17.8801 77.0308 18.1782 76.4981 18.4598 76.2165C18.5292 76.1442 25.9526 69.0651 25.9526 64.0391V44.4688C25.9526 31.6803 34.1006 21.8523 45.5582 21.8523H47.3726C57.6542 21.8523 67.1678 30.5823 67.1678 41.1397V49.9074C67.1678 50.0641 68.4137 50.4039 71.5794 50.6996C72.5607 50.79 73.3057 51.4151 73.7391 52.3663C74.18 53.3332 74.015 54.4492 73.471 55.3539L73.4712 55.3537ZM65.2936 41.1388C65.2936 31.8346 56.48 23.8623 47.3728 23.8623H45.5584C35.1512 23.8623 27.8256 32.8074 27.8256 44.468V64.0383C27.8256 68.2905 23.1756 74.1251 20.9218 76.136H55.6443C57.0461 76.136 58.9883 75.3056 59.6939 74.2921C61.5064 71.6885 65.2933 66.7489 65.2933 63.3172L65.2936 41.1388ZM71.4164 52.7008C69.0633 52.4819 67.1683 52.2284 67.1683 51.9954V58.7949C69.0408 58.5053 70.5945 56.8867 71.6604 55.0231L71.6904 54.2631C71.8764 53.9554 72.1033 53.5754 71.9533 53.2499C71.8858 53.0989 71.882 52.743 71.4164 52.7008L71.4164 52.7008ZM58.0276 45.7868C56.476 45.7868 55.2167 43.5371 55.2167 40.7604C55.2167 37.9861 56.476 35.734 58.0276 35.734C59.5795 35.734 60.837 37.986 60.837 40.7604C60.837 43.5371 59.5795 45.7868 58.0276 45.7868V45.7868ZM41.3236 64.8865C40.8058 64.8865 40.3874 64.4382 40.3874 63.8813C40.3874 63.3265 40.8058 62.8759 41.3236 62.8759C45.5795 62.8759 47.9739 60.357 49.2349 58.244C49.4227 57.9282 49.4471 57.5382 49.3005 57.2024C49.2237 57.0256 49.0305 56.7199 48.6215 56.6636C42.6974 55.8695 38.8807 52.7473 38.7215 52.6143C38.3124 52.2745 38.2371 51.6434 38.5524 51.2051C38.8696 50.7668 39.4568 50.6865 39.8658 51.022C39.9018 51.0521 43.4614 53.9452 48.8522 54.6692C49.7906 54.7958 50.5919 55.4232 50.9972 56.348C51.4175 57.313 51.35 58.4269 50.8131 59.3276C49.3007 61.8628 46.4259 64.8866 41.3235 64.8866L41.3236 64.8865ZM46.788 45.7868C45.2362 45.7868 43.9771 43.5371 43.9771 40.7604C43.9771 37.9861 45.2361 35.734 46.788 35.734C48.3399 35.734 49.5971 37.986 49.5971 40.7604C49.5971 43.5371 48.3399 45.7868 46.788 45.7868Z" fill="black"/>
</g>
<line x1="78.25" y1="78" x2="78.25" y2="58" stroke="black" stroke-width="1.5"/>
<line x1="74" y1="59" x2="103" y2="59" stroke="black" stroke-width="2"/>
<path d="M98 78V60" stroke="black" stroke-width="1.5"/>
<line x1="79" y1="57" x2="96" y2="57" stroke="black" stroke-width="2"/>
<line x1="95.3129" y1="57.6994" x2="102.313" y2="41.6994" stroke="black" stroke-width="1.5"/>
<line x1="81" y1="69.25" x2="95" y2="69.25" stroke="black" stroke-width="1.5"/>
<line x1="78.2885" y1="77.7628" x2="81.2885" y2="68.7628" stroke="black" stroke-width="1.5"/>
<line x1="94.7478" y1="68.7334" x2="97.9313" y2="77.6702" stroke="black" stroke-width="1.5"/>
<path d="M76.9773 30.7273V30.6591C76.9848 29.9356 77.0606 29.3598 77.2045 28.9318C77.3485 28.5038 77.553 28.1572 77.8182 27.892C78.0833 27.6269 78.4015 27.3826 78.7727 27.1591C78.9962 27.0227 79.197 26.8617 79.375 26.6761C79.553 26.4867 79.6932 26.2689 79.7955 26.0227C79.9015 25.7765 79.9545 25.5038 79.9545 25.2045C79.9545 24.8333 79.8674 24.5114 79.6932 24.2386C79.5189 23.9659 79.286 23.7557 78.9943 23.608C78.7027 23.4602 78.3788 23.3864 78.0227 23.3864C77.7121 23.3864 77.4129 23.4508 77.125 23.5795C76.8371 23.7083 76.5966 23.911 76.4034 24.1875C76.2102 24.464 76.0985 24.8258 76.0682 25.2727H74.6364C74.6667 24.6288 74.8333 24.0777 75.1364 23.6193C75.4432 23.161 75.8466 22.8106 76.3466 22.5682C76.8504 22.3258 77.4091 22.2045 78.0227 22.2045C78.6894 22.2045 79.2689 22.3371 79.7614 22.6023C80.2576 22.8674 80.6402 23.2311 80.9091 23.6932C81.1818 24.1553 81.3182 24.6818 81.3182 25.2727C81.3182 25.6894 81.2538 26.0663 81.125 26.4034C81 26.7405 80.8182 27.0417 80.5795 27.3068C80.3447 27.572 80.0606 27.8068 79.7273 28.0114C79.3939 28.2197 79.1269 28.4394 78.9261 28.6705C78.7254 28.8977 78.5795 29.1686 78.4886 29.483C78.3977 29.7973 78.3485 30.1894 78.3409 30.6591V30.7273H76.9773ZM77.7045 34.0909C77.4242 34.0909 77.1837 33.9905 76.983 33.7898C76.7822 33.589 76.6818 33.3485 76.6818 33.0682C76.6818 32.7879 76.7822 32.5473 76.983 32.3466C77.1837 32.1458 77.4242 32.0455 77.7045 32.0455C77.9848 32.0455 78.2254 32.1458 78.4261 32.3466C78.6269 32.5473 78.7273 32.7879 78.7273 33.0682C78.7273 33.2538 78.6799 33.4242 78.5852 33.5795C78.4943 33.7348 78.3712 33.8598 78.2159 33.9545C78.0644 34.0455 77.8939 34.0909 77.7045 34.0909Z" fill="black"/>
<path d="M84 22.3636L83.8864 30.7273H82.5682L82.4545 22.3636H84ZM83.2273 34.0909C82.947 34.0909 82.7064 33.9905 82.5057 33.7898C82.3049 33.589 82.2045 33.3485 82.2045 33.0682C82.2045 32.7879 82.3049 32.5473 82.5057 32.3466C82.7064 32.1458 82.947 32.0455 83.2273 32.0455C83.5076 32.0455 83.7481 32.1458 83.9489 32.3466C84.1496 32.5473 84.25 32.7879 84.25 33.0682C84.25 33.2538 84.2027 33.4242 84.108 33.5795C84.017 33.7348 83.8939 33.8598 83.7386 33.9545C83.5871 34.0455 83.4167 34.0909 83.2273 34.0909Z" fill="black"/>
<defs>
<clipPath id="clip0_0_1">
<rect width="56" height="60" fill="white" transform="translate(18 20)"/>
</clipPath>
</defs>
</svg>
