<svg viewBox="0 0 360 360" fill="none" xmlns="http://www.w3.org/2000/svg">
<g clip-path="url(#clip0_2_2)">
<path fill-rule="evenodd" clip-rule="evenodd" d="M253.584 193.384L253.005 195.188C249.974 200.139 246.732 206.141 236.7 206.996V213.294C236.7 223.542 226.27 236.274 220.696 243.742C217.891 247.502 211.126 250.367 205.833 250.367H106.835C105.805 250.367 105.432 249.497 105.056 248.537C104.679 247.577 105.477 246.245 106.232 245.541C106.417 245.361 126.302 227.663 126.302 215.098V166.172C126.302 134.201 148.127 109.631 178.817 109.631H183.677C211.217 109.631 236.699 131.456 236.699 157.849V179.769C236.699 180.16 240.037 181.01 248.516 181.749C251.145 181.975 253.14 183.538 254.301 185.916C255.482 188.333 255.04 191.123 253.583 193.385L253.584 193.384ZM231.679 157.847C231.679 134.586 208.071 114.656 183.677 114.656H178.817C150.941 114.656 131.319 137.019 131.319 166.17V215.096C131.319 225.726 118.863 240.313 112.826 245.34H205.833C209.588 245.34 214.79 243.264 216.68 240.73C221.535 234.221 231.678 221.872 231.678 213.293L231.679 157.847ZM248.08 186.752C241.777 186.205 236.701 185.571 236.701 184.988V201.987C241.716 201.263 245.878 197.217 248.733 192.558L248.814 190.658C249.312 189.889 249.919 188.938 249.518 188.125C249.337 187.747 249.327 186.858 248.079 186.752L248.08 186.752ZM212.217 169.467C208.061 169.467 204.687 163.843 204.687 156.901C204.687 149.965 208.061 144.335 212.217 144.335C216.373 144.335 219.742 149.965 219.742 156.901C219.742 163.843 216.373 169.467 212.217 169.467V169.467ZM167.474 217.216C166.087 217.216 164.966 216.095 164.966 214.703C164.966 213.316 166.087 212.19 167.474 212.19C178.874 212.19 185.287 205.893 188.665 200.61C189.168 199.821 189.233 198.845 188.841 198.006C188.635 197.564 188.117 196.8 187.022 196.659C171.154 194.674 160.93 186.868 160.504 186.536C159.408 185.686 159.206 184.108 160.051 183.013C160.901 181.917 162.474 181.716 163.569 182.555C163.665 182.63 173.2 189.863 187.64 191.673C190.153 191.989 192.3 193.558 193.385 195.87C194.511 198.282 194.33 201.067 192.892 203.319C188.841 209.657 181.141 217.217 167.474 217.217L167.474 217.216ZM182.111 169.467C177.954 169.467 174.581 163.843 174.581 156.901C174.581 149.965 177.954 144.335 182.111 144.335C186.267 144.335 189.635 149.965 189.635 156.901C189.635 163.843 186.267 169.467 182.111 169.467Z" fill="black"/>
</g>
<path d="M250.864 119.496C250.864 118.941 251.056 118.472 251.44 118.088C251.824 117.704 252.272 117.512 252.784 117.512C254.747 117.384 256.496 116.893 258.032 116.04C259.568 115.187 260.784 114.035 261.68 112.584C262.576 111.133 263.024 109.448 263.024 107.528C263.024 105.523 262.597 103.795 261.744 102.344C260.933 100.851 259.824 99.6987 258.416 98.888C257.008 98.0347 255.408 97.608 253.616 97.608C251.867 97.608 250.224 98.0133 248.688 98.824C247.152 99.6347 245.872 100.701 244.848 102.024C244.507 102.365 244.101 102.621 243.632 102.792C243.205 102.92 242.736 102.813 242.224 102.472C241.712 102.131 241.413 101.704 241.328 101.192C241.243 100.637 241.392 100.125 241.776 99.656C243.141 97.9493 244.869 96.5627 246.96 95.496C249.051 94.4293 251.269 93.896 253.616 93.896C256.091 93.896 258.331 94.4507 260.336 95.56C262.384 96.6693 264.005 98.248 265.2 100.296C266.395 102.344 266.992 104.755 266.992 107.528C266.992 109.235 266.651 110.877 265.968 112.456C265.285 114.035 264.347 115.443 263.152 116.68C261.957 117.917 260.571 118.899 258.992 119.624C257.413 120.349 255.707 120.755 253.872 120.84C253.744 120.84 253.787 120.819 254 120.776C254.213 120.733 254.427 120.605 254.64 120.392V127.112C254.64 127.667 254.448 128.136 254.064 128.52C253.723 128.861 253.275 129.032 252.72 129.032C252.165 129.032 251.696 128.861 251.312 128.52C250.971 128.136 250.821 127.667 250.864 127.112V119.496ZM252.784 141C252.059 141 251.483 140.787 251.056 140.36C250.672 139.891 250.48 139.293 250.48 138.568V137.16C250.48 136.392 250.672 135.795 251.056 135.368C251.483 134.941 252.059 134.728 252.784 134.728H253.168C253.936 134.728 254.491 134.941 254.832 135.368C255.216 135.795 255.408 136.392 255.408 137.16V138.568C255.408 139.293 255.216 139.891 254.832 140.36C254.491 140.787 253.936 141 253.168 141H252.784Z" fill="black"/>
<defs>
<clipPath id="clip0_2_2">
<rect width="150" height="150" fill="white" transform="translate(105 105)"/>
</clipPath>
</defs>
</svg>
