<svg viewBox="0 0 360 360" fill="none" xmlns="http://www.w3.org/2000/svg">
<g clip-path="url(#clip0_2_2)">
<path fill-rule="evenodd" clip-rule="evenodd" d="M194.867 201.707L194.404 203.151C191.979 207.111 189.386 211.913 181.36 212.597V217.635C181.36 225.833 173.016 236.019 168.557 241.993C166.313 245.001 160.9 247.294 156.666 247.294H77.4681C76.6437 247.294 76.3457 246.598 76.0444 245.83C75.7431 245.062 76.3819 243.996 76.9853 243.433C77.1339 243.288 93.0413 229.13 93.0413 219.078V179.938C93.0413 154.361 110.501 134.705 135.053 134.705H138.941C160.973 134.705 181.36 152.165 181.36 173.279V190.815C181.36 191.128 184.029 191.808 190.813 192.399C192.916 192.58 194.512 193.83 195.441 195.733C196.386 197.667 196.032 199.899 194.866 201.708L194.867 201.707ZM177.343 173.278C177.343 154.669 158.457 138.725 138.942 138.725H135.054C112.753 138.725 97.0548 156.615 97.0548 179.936V219.077C97.0548 227.581 87.0906 239.25 82.2611 243.272H156.666C159.67 243.272 163.832 241.611 165.344 239.584C169.228 234.377 177.343 224.498 177.343 217.635L177.343 173.278ZM190.464 196.402C185.421 195.964 181.361 195.457 181.361 194.991V208.59C185.373 208.011 188.702 204.774 190.987 201.046L191.051 199.526C191.449 198.911 191.935 198.151 191.614 197.5C191.469 197.198 191.461 196.486 190.464 196.402L190.464 196.402ZM161.773 182.574C158.449 182.574 155.75 178.074 155.75 172.521C155.75 166.972 158.449 162.468 161.773 162.468C165.099 162.468 167.793 166.972 167.793 172.521C167.793 178.074 165.099 182.574 161.773 182.574V182.574ZM125.979 220.773C124.87 220.773 123.973 219.876 123.973 218.763C123.973 217.653 124.87 216.752 125.979 216.752C135.099 216.752 140.23 211.714 142.932 207.488C143.334 206.857 143.387 206.076 143.072 205.405C142.908 205.051 142.494 204.44 141.617 204.327C128.923 202.739 120.744 196.495 120.403 196.229C119.527 195.549 119.365 194.287 120.041 193.41C120.72 192.534 121.979 192.373 122.855 193.044C122.932 193.104 130.56 198.891 142.112 200.338C144.123 200.592 145.84 201.846 146.708 203.696C147.609 205.626 147.464 207.854 146.314 209.655C143.073 214.726 136.913 220.773 125.979 220.773L125.979 220.773ZM137.689 182.574C134.363 182.574 131.665 178.074 131.665 172.521C131.665 166.972 134.363 162.468 137.689 162.468C141.014 162.468 143.708 166.972 143.708 172.521C143.708 178.074 141.014 182.574 137.689 182.574Z" fill="black"/>
</g>
<path d="M289.522 107.109L290.426 141.538L266.719 166.522L232.289 167.426L207.305 143.719L206.402 109.289L230.109 84.3052L264.538 83.4019L289.522 107.109Z" fill="#FD6666"/>
<path d="M248 167V251" stroke="black" stroke-width="4"/>
<path d="M224.553 135.24C223.401 135.24 222.377 135.08 221.481 134.76C220.585 134.44 219.729 133.912 218.913 133.176C218.737 133.048 218.601 132.896 218.505 132.72C218.425 132.528 218.385 132.336 218.385 132.144C218.385 131.84 218.497 131.568 218.721 131.328C218.945 131.088 219.225 130.968 219.561 130.968C219.817 130.968 220.057 131.056 220.281 131.232C220.889 131.792 221.521 132.216 222.177 132.504C222.849 132.792 223.633 132.936 224.529 132.936C225.169 132.936 225.753 132.832 226.281 132.624C226.825 132.416 227.257 132.136 227.577 131.784C227.897 131.432 228.057 131.024 228.057 130.56C228.057 129.984 227.889 129.512 227.553 129.144C227.233 128.76 226.761 128.448 226.137 128.208C225.529 127.952 224.793 127.736 223.929 127.56C223.129 127.416 222.409 127.216 221.769 126.96C221.145 126.704 220.609 126.384 220.161 126C219.713 125.6 219.369 125.128 219.129 124.584C218.889 124.04 218.769 123.408 218.769 122.688C218.769 121.712 219.025 120.872 219.537 120.168C220.049 119.464 220.745 118.92 221.625 118.536C222.505 118.152 223.497 117.96 224.601 117.96C225.609 117.96 226.553 118.12 227.433 118.44C228.313 118.744 229.025 119.16 229.569 119.688C229.953 120.024 230.145 120.384 230.145 120.768C230.145 121.056 230.025 121.328 229.785 121.584C229.561 121.824 229.297 121.944 228.993 121.944C228.769 121.944 228.577 121.88 228.417 121.752C228.161 121.48 227.817 121.24 227.385 121.032C226.953 120.808 226.489 120.624 225.993 120.48C225.513 120.336 225.049 120.264 224.601 120.264C223.881 120.264 223.265 120.368 222.753 120.576C222.241 120.768 221.849 121.04 221.577 121.392C221.305 121.728 221.169 122.128 221.169 122.592C221.169 123.136 221.321 123.584 221.625 123.936C221.945 124.288 222.385 124.576 222.945 124.8C223.505 125.008 224.145 125.2 224.865 125.376C225.745 125.568 226.529 125.784 227.217 126.024C227.921 126.264 228.513 126.576 228.993 126.96C229.473 127.328 229.841 127.792 230.097 128.352C230.353 128.912 230.481 129.608 230.481 130.44C230.481 131.4 230.209 132.24 229.665 132.96C229.121 133.68 228.401 134.24 227.505 134.64C226.625 135.04 225.641 135.24 224.553 135.24ZM238.904 135C238.52 135 238.208 134.888 237.968 134.664C237.744 134.424 237.632 134.128 237.632 133.776V119.4H240.2V133.776C240.2 134.128 240.072 134.424 239.816 134.664C239.576 134.888 239.272 135 238.904 135ZM233.456 120.504C233.12 120.504 232.832 120.4 232.592 120.192C232.352 119.968 232.232 119.68 232.232 119.328C232.232 118.992 232.352 118.72 232.592 118.512C232.832 118.304 233.12 118.2 233.456 118.2H244.376C244.712 118.2 244.992 118.312 245.216 118.536C245.456 118.744 245.576 119.016 245.576 119.352C245.576 119.704 245.456 119.984 245.216 120.192C244.992 120.4 244.712 120.504 244.376 120.504H233.456ZM263.135 126.6C263.135 127.816 262.935 128.952 262.535 130.008C262.135 131.048 261.567 131.96 260.831 132.744C260.111 133.528 259.255 134.144 258.263 134.592C257.271 135.024 256.183 135.24 254.999 135.24C253.831 135.24 252.751 135.024 251.759 134.592C250.767 134.144 249.903 133.528 249.167 132.744C248.447 131.96 247.887 131.048 247.487 130.008C247.103 128.952 246.911 127.816 246.911 126.6C246.911 125.384 247.103 124.256 247.487 123.216C247.887 122.16 248.447 121.24 249.167 120.456C249.903 119.672 250.767 119.064 251.759 118.632C252.751 118.184 253.831 117.96 254.999 117.96C256.183 117.96 257.271 118.184 258.263 118.632C259.255 119.064 260.111 119.672 260.831 120.456C261.567 121.24 262.135 122.16 262.535 123.216C262.935 124.256 263.135 125.384 263.135 126.6ZM260.543 126.6C260.543 125.416 260.303 124.352 259.823 123.408C259.359 122.464 258.711 121.72 257.879 121.176C257.047 120.632 256.087 120.36 254.999 120.36C253.927 120.36 252.975 120.632 252.143 121.176C251.311 121.72 250.663 122.464 250.199 123.408C249.735 124.336 249.503 125.4 249.503 126.6C249.503 127.784 249.735 128.848 250.199 129.792C250.663 130.736 251.311 131.48 252.143 132.024C252.975 132.568 253.927 132.84 254.999 132.84C256.087 132.84 257.047 132.568 257.879 132.024C258.711 131.48 259.359 130.736 259.823 129.792C260.303 128.848 260.543 127.784 260.543 126.6ZM272.849 118.2C273.697 118.2 274.481 118.432 275.201 118.896C275.921 119.344 276.497 119.96 276.929 120.744C277.361 121.528 277.577 122.408 277.577 123.384C277.577 124.36 277.361 125.248 276.929 126.048C276.497 126.832 275.921 127.464 275.201 127.944C274.481 128.408 273.697 128.64 272.849 128.64H268.217L268.409 128.256V133.776C268.409 134.128 268.297 134.424 268.073 134.664C267.865 134.888 267.585 135 267.233 135C266.897 135 266.617 134.888 266.393 134.664C266.185 134.424 266.081 134.128 266.081 133.776V119.424C266.081 119.072 266.201 118.784 266.441 118.56C266.681 118.32 266.969 118.2 267.305 118.2H272.849ZM272.849 126.336C273.265 126.336 273.641 126.2 273.977 125.928C274.329 125.656 274.609 125.296 274.817 124.848C275.041 124.4 275.153 123.912 275.153 123.384C275.153 122.856 275.041 122.376 274.817 121.944C274.609 121.512 274.329 121.168 273.977 120.912C273.641 120.64 273.265 120.504 272.849 120.504H268.169L268.409 120.144V126.648L268.193 126.336H272.849Z" fill="white"/>
<defs>
<clipPath id="clip0_2_2">
<rect width="120" height="120" fill="white" transform="translate(76 131)"/>
</clipPath>
</defs>
</svg>
