<?xml version="1.0" standalone="no"?>
<!DOCTYPE svg PUBLIC "-//W3C//DTD SVG 20010904//EN"
 "http://www.w3.org/TR/2001/REC-SVG-20010904/DTD/svg10.dtd">
<svg version="1.0" xmlns="http://www.w3.org/2000/svg"
 width="700.000000pt" height="700.000000pt" viewBox="0 0 700.000000 700.000000"
 preserveAspectRatio="xMidYMid meet">
<metadata>
Created by potrace 1.14, written by Peter Selinger 2001-2017
</metadata>
<g transform="translate(0.000000,700.000000) scale(0.100000,-0.100000)"
fill="#000000" stroke="none">
<path d="M3367 6784 c-1 -1 -53 -5 -116 -8 -63 -4 -117 -9 -120 -10 -3 -2 -35
-7 -71 -11 -36 -4 -68 -9 -71 -11 -4 -2 -24 -6 -45 -9 -72 -10 -298 -78 -407
-121 -233 -94 -467 -234 -647 -389 -76 -65 -250 -244 -310 -320 -158 -199
-317 -483 -408 -730 -45 -120 -102 -331 -127 -465 -16 -88 -17 -97 -30 -210
-4 -36 -10 -78 -12 -95 -3 -16 -6 -604 -7 -1305 -2 -701 -6 -1297 -10 -1325
-32 -231 -186 -511 -473 -857 -103 -125 -150 -175 -340 -364 -132 -131 -163
-167 -168 -197 -8 -43 8 -97 36 -123 20 -18 94 -19 2342 -19 2119 0 2398 2
2492 20 162 30 358 126 465 227 53 50 335 426 451 603 173 262 277 475 324
664 25 99 29 142 29 333 l1 178 45 5 c241 32 415 128 560 310 62 78 170 253
170 276 0 9 11 37 24 62 84 157 66 314 -48 430 -24 24 -64 53 -88 65 -48 22
-98 31 -263 47 -222 21 -394 55 -396 78 0 7 -2 273 -4 592 -1 319 -5 607 -9
640 -7 50 -20 121 -52 273 -2 12 -20 69 -38 125 -77 234 -211 477 -375 682
-60 75 -254 274 -331 340 -85 73 -328 245 -345 245 -4 0 -19 8 -33 19 -42 29
-188 103 -287 145 -249 107 -552 183 -805 202 -77 6 -497 12 -503 8z m543
-247 c22 -4 69 -12 145 -22 142 -20 410 -105 580 -185 126 -59 399 -222 435
-260 3 -3 37 -31 77 -62 246 -197 457 -461 591 -738 71 -149 106 -255 158
-490 13 -57 17 -2864 4 -2938 -29 -170 -129 -383 -303 -647 -130 -196 -405
-557 -452 -593 -55 -42 -163 -95 -236 -116 -31 -9 -67 -20 -80 -24 -13 -4
-1021 -8 -2241 -9 l-2216 -3 132 132 c377 379 652 822 711 1148 11 61 14 312
15 1320 1 1213 2 1295 15 1410 36 323 121 614 257 885 75 150 111 207 220 354
282 380 700 663 1150 777 57 14 113 28 126 30 12 2 34 6 50 9 33 7 84 14 177
24 75 9 644 7 685 -2z m2263 -3286 c13 -5 48 -12 78 -16 30 -4 56 -8 59 -10 3
-2 34 -6 70 -9 36 -4 82 -9 103 -12 21 -3 64 -7 95 -9 133 -10 155 -21 167
-85 4 -25 0 -46 -15 -75 -11 -21 -20 -57 -20 -79 0 -31 -11 -55 -47 -110 -62
-92 -212 -241 -288 -286 -58 -35 -215 -93 -224 -84 -5 4 -8 784 -4 784 1 0 12
-4 26 -9z"/>
<path d="M3578 5164 c-2 -1 -16 -5 -31 -8 -66 -12 -143 -77 -200 -167 -40 -65
-82 -199 -93 -294 -6 -53 -5 -209 1 -250 29 -192 129 -371 239 -427 55 -28
146 -30 201 -3 197 95 298 436 230 774 -30 154 -127 302 -228 350 -38 18 -111
33 -119 25z"/>
<path d="M4935 5153 c-37 -11 -63 -30 -109 -76 -72 -73 -117 -159 -148 -285
-30 -121 -30 -322 1 -437 59 -225 181 -359 326 -359 196 0 347 256 347 589 -1
366 -196 632 -417 568z"/>
<path d="M2611 3391 c-17 -9 -38 -27 -47 -40 -20 -29 -20 -95 0 -127 41 -61
340 -230 577 -324 172 -69 453 -146 604 -166 121 -16 138 -23 165 -74 16 -29
15 -82 -1 -113 -26 -48 -121 -165 -187 -231 -199 -196 -472 -310 -762 -317
-78 -2 -120 -19 -143 -58 -28 -48 -22 -96 16 -138 33 -36 35 -36 113 -37 76 0
222 12 234 19 3 2 25 6 49 10 68 10 239 69 322 110 195 99 356 238 501 436 87
119 113 193 103 299 -15 153 -127 280 -272 308 -289 55 -341 67 -428 93 -38
11 -80 23 -93 26 -12 3 -25 9 -28 14 -3 5 -14 9 -24 9 -52 0 -377 158 -526
256 -90 60 -126 69 -173 45z"/>
</g>
</svg>
